<svg xmlns="http://www.w3.org/2000/svg" width="64" height="64" viewBox="0 0 64 64">
  <g>
    <path d="M32 16 C29 9 30 3 32 0 C34 3 35 9 32 16 Z" fill="#388E3C" transform="rotate(-55 32 16)"/>
    <path d="M32 16 C29 9 30 3 32 0 C34 3 35 9 32 16 Z" fill="#4CAF50" transform="rotate(-27 32 16)"/>
    <path d="M32 16 C29 9 30 3 32 0 C34 3 35 9 32 16 Z" fill="#66BB6A" transform="rotate(0 32 16)"/>
    <path d="M32 16 C29 9 30 3 32 0 C34 3 35 9 32 16 Z" fill="#4CAF50" transform="rotate(27 32 16)"/>
    <path d="M32 16 C29 9 30 3 32 0 C34 3 35 9 32 16 Z" fill="#388E3C" transform="rotate(55 32 16)"/>
  </g>
  <path
    d="M32 58 C20 58,8 44,8 30 C8 16,18 12,32 16 C46 12,56 16,56 30 C56 44,44 58,32 58 Z"
    fill="#F94144"
  />
  <ellipse cx="22" cy="26" rx="8" ry="12" fill="#fff" opacity="0.18" transform="rotate(-20 22 26)"/>
  <g fill="#FFD966">
    <ellipse cx="14" cy="26" rx="1.6" ry="2.2" transform="rotate(-30 14 26)"/>
    <ellipse cx="50" cy="26" rx="1.6" ry="2.2" transform="rotate(30 50 26)"/>
    <ellipse cx="11" cy="40" rx="1.6" ry="2.2" transform="rotate(-15 11 40)"/>
    <ellipse cx="53" cy="40" rx="1.6" ry="2.2" transform="rotate(15 53 40)"/>
    <ellipse cx="18" cy="52" rx="1.6" ry="2.2" transform="rotate(-20 18 52)"/>
    <ellipse cx="46" cy="52" rx="1.6" ry="2.2" transform="rotate(20 46 52)"/>
    <ellipse cx="32" cy="56" rx="1.6" ry="2.2"/>
  </g>
  <circle cx="18" cy="37" r="3.5" fill="#FF8FA3" opacity="0.5"/>
  <circle cx="46" cy="37" r="3.5" fill="#FF8FA3" opacity="0.5"/>
  <circle cx="25" cy="31" r="2.8" fill="#2b2b2b"/>
  <circle cx="39" cy="31" r="2.8" fill="#2b2b2b"/>
  <circle cx="26" cy="30" r="0.8" fill="#fff"/>
  <circle cx="40" cy="30" r="0.8" fill="#fff"/>
  <path d="M26 40 Q32 46 38 40" stroke="#2b2b2b" stroke-width="2" fill="none" stroke-linecap="round"/>
</svg>
